<svg xmlns="http://www.w3.org/2000/svg" version="1.1" viewBox="-5.0 -10.0 110.0 135.0">
 <path d="m17.426 56.918h3.125l-2.4688 6.25c-1.4258 3.6523-2.1562 7.5352-2.1562 11.457v4.8555 0.39453 3.1875c0.12109 3.9609 3.3555 7.1133 7.3164 7.1367 3.9609 0.027343 7.2305-3.0859 7.4023-7.043h29.312c0.17188 3.957 3.4453 7.0703 7.4062 7.043 3.9609-0.023438 7.1914-3.1758 7.3125-7.1367v-3.125c0.007813-0.046875 0.007813-0.097656 0-0.14453 0.007813-0.09375 0.007813-0.1875 0-0.28125v-4.8359c0.003907-3.918-0.73047-7.8047-2.1562-11.457l-2.457-6.25h3.125c1.2578 0.058594 2.4844-0.39844 3.3945-1.2656 0.91406-0.87109 1.4297-2.0742 1.4297-3.332 0-1.2617-0.51562-2.4648-1.4297-3.332-0.91016-0.87109-2.1367-1.3281-3.3945-1.2695h-4.168c-0.82812 0.003907-1.6406 0.23047-2.3516 0.65625l-1.8359-4.8828c-0.70312-1.8242-2.4609-3.0234-4.4141-3.0234h-30.211c-1.957-0.003906-3.7188 1.1953-4.4258 3.0234l-1.8242 4.832c-0.70703-0.42578-1.5156-0.65234-2.3438-0.65625h-4.168 0.003907c-2.457 0.11719-4.3867 2.1406-4.3867 4.5977 0 2.4609 1.9297 4.4844 4.3867 4.6016zm13.73 12.25c0.73828 0.25 4.9805 1.832 5.4375 5.793l-14.719-0.003907v-5.7891zm41.449 0c0.33984 1.8164 0.51172 3.6602 0.50781 5.5078v0.32422h-3.125v-5.832zm-52.969 12.426c-1.1523 0-2.0859-0.93359-2.0859-2.082v-2.9922h55.562v2.9609c0 0.55078-0.21875 1.082-0.60938 1.4727s-0.92188 0.60938-1.4727 0.60938zm48.82-6.5938h-14.758c0.44922-3.957 4.6875-5.543 5.4258-5.793h9.375zm-16.32 0h-13.98c-0.28125-2.3789-1.6211-4.5078-3.6445-5.793h21.258c-2.0234 1.2812-3.3594 3.4141-3.6328 5.793zm-31.875 0h-2.7422v-0.28125c0.003907-1.8477 0.17578-3.6914 0.51172-5.5117h2.2305zm3.125 13.895c-3.2031 0-5.7969-2.5898-5.8047-5.7891v-0.60547c0.61328 0.42578 1.3398 0.65234 2.0859 0.65625h9.5c-0.050781 3.1719-2.6445 5.7109-5.8125 5.6992zm43.957 0c-3.1562-0.007812-5.7305-2.5391-5.793-5.6953h9.4805c0.74609-0.011719 1.4727-0.24609 2.082-0.67969v0.58594c-0.027343 3.1836-2.6172 5.75-5.8008 5.75zm1.7617-39.582h4.168-0.003907c0.83594-0.050781 1.6562 0.25 2.2656 0.82422s0.95703 1.375 0.95703 2.2109c0 0.83984-0.34766 1.6406-0.95703 2.2148s-1.4297 0.87109-2.2656 0.82422h-3.8203l-2.1445-5.5h-0.003907c0.51172-0.38281 1.1328-0.59375 1.7734-0.60547zm-41.812-5.207c0.45703-1.2148 1.6172-2.0195 2.9141-2.0234h30.211c1.3125-0.011719 2.4922 0.79297 2.957 2.0234l2.25 5.8008 3.5625 9.1133h-6.8633c-0.43359 0-0.78125 0.35156-0.78125 0.78125 0 0.43359 0.34766 0.78125 0.78125 0.78125h7.4688l1.25 3.1992c0.48438 1.2422 0.88672 2.5156 1.207 3.8125h-53.875c0.3125-1.2969 0.71094-2.5703 1.1992-3.8125l1.2578-3.1875h34.5c0.43359 0 0.78125-0.35156 0.78125-0.78125s-0.34766-0.78125-0.78125-0.78125h-33.895zm-9.832 5.207h4.168-0.003906c0.63672 0.007812 1.2539 0.20703 1.7695 0.57422l-2.1562 5.5h-3.8125c-1.6055-0.09375-2.8633-1.4258-2.8633-3.0391 0-1.6094 1.2578-2.9414 2.8633-3.0352zm20.039-11.426c0.42969 0 0.78125-0.35156 0.78125-0.78125v-18.062h47.324v22c0 1.3672-1.1094 2.4766-2.4805 2.4766h-13.863c-0.43359 0-0.78125 0.35156-0.78125 0.78125 0 0.43359 0.34766 0.78125 0.78125 0.78125h13.863c2.2305 0 4.043-1.8086 4.043-4.0391v-27.418c0-2.2305-1.8125-4.043-4.043-4.043h-42.355c-2.2305 0-4.0391 1.8125-4.0391 4.043v23.48c-0.003907 0.20312 0.074219 0.40234 0.22266 0.55078 0.14453 0.14844 0.33984 0.23047 0.54688 0.23047zm3.2695-26.742h42.355c1.3711 0 2.4805 1.1094 2.4805 2.4805v3.8555h-47.312v-3.8555c0.003906-1.3672 1.1094-2.4727 2.4766-2.4805zm41.18 25.637c0.20703 0.003906 0.40625-0.078125 0.55469-0.22656 0.14844-0.14453 0.22656-0.34766 0.22656-0.55469v-13.082c0-0.43359-0.35156-0.78125-0.78125-0.78125h-13.055c-0.42969 0.003906-0.77344 0.35156-0.78125 0.78125v13.082c0 0.42969 0.35156 0.78125 0.78125 0.78125zm-12.273-13.051h11.457v11.457h-11.457zm-28.512 1.043 0.003907-0.003907c-0.003907-0.20703 0.078125-0.40625 0.22266-0.55469 0.14844-0.14844 0.34766-0.22656 0.55859-0.22656h12.695c0.43359 0 0.78125 0.35156 0.78125 0.78125 0 0.43359-0.34766 0.78125-0.78125 0.78125h-12.695c-0.21484 0-0.42188-0.085937-0.57031-0.24219-0.14453-0.15625-0.22266-0.36328-0.21094-0.57812zm21.738 4.5625 0.003906-0.003907c0 0.43359-0.35156 0.78125-0.78125 0.78125h-20.176c-0.43359 0-0.78125-0.34766-0.78125-0.78125 0-0.42969 0.34766-0.78125 0.78125-0.78125h20.176c0.41406 0.003907 0.75391 0.32812 0.78125 0.74219zm0 4.9375 0.003906-0.003907c-0.003906 0.42969-0.35156 0.77734-0.78125 0.78125h-20.176c-0.43359 0-0.78125-0.34766-0.78125-0.78125 0-0.42969 0.34766-0.78125 0.78125-0.78125h20.176c0.41406 0 0.75781 0.32422 0.78125 0.74219zm-32.477 17.871c-0.10547-0.41406 0.14844-0.83984 0.5625-0.94531l24.344-6.332v-0.003907c0.42188-0.10547 0.84766 0.14453 0.96094 0.5625 0.10547 0.41797-0.14844 0.84375-0.5625 0.94922l-24.344 6.332h-0.19922c-0.35156 0.007813-0.66406-0.22266-0.76172-0.5625zm25-1.8633c0.11719 0.41797-0.125 0.84766-0.53906 0.96875l-15.211 4.2305c-0.41406 0.11719-0.84766-0.125-0.96875-0.54297-0.11719-0.41797 0.125-0.85156 0.54297-0.96875l15.176-4.2305c0.19922-0.054687 0.41406-0.03125 0.59375 0.070313 0.17969 0.10156 0.3125 0.27344 0.36719 0.47266z"/>
<text x="0.0" y="117.5" font-size="5.0" font-weight="bold" font-family="Arbeit Regular, Helvetica, Arial-Unicode, Arial, Sans-serif" fill="#000000">Created by Putro Hartono</text><text x="0.0" y="122.5" font-size="5.0" font-weight="bold" font-family="Arbeit Regular, Helvetica, Arial-Unicode, Arial, Sans-serif" fill="#000000">from Noun Project</text></svg>