<svg xmlns="http://www.w3.org/2000/svg" xmlns:xlink="http://www.w3.org/1999/xlink" version="1.1" x="0px" y="0px" viewBox="0 0 512 640" style="enable-background:new 0 0 512 512;" xml:space="preserve"><path d="M424.414,180.045c0-15.355-12.493-27.848-27.856-27.848H118.375c-15.363,0-27.856,12.493-27.856,27.848v153.371  c0.003,15.355,12.496,27.848,27.856,27.848h278.183c15.363,0,27.856-12.493,27.856-27.848V180.045z M411.559,333.414  c0,8.277-6.724,15.009-15.001,15.009H118.375c-8.277,0-15.001-6.732-15.001-15.009V180.042c0-8.277,6.724-15.009,15.001-15.009  h278.183c8.277,0,15.001,6.732,15.001,15.009V333.414z M174.951,248.625c16.759,0,30.41-13.646,30.41-30.418  s-13.654-30.412-30.41-30.412c-16.772,0-30.426,13.637-30.426,30.412C144.525,234.982,158.176,248.625,174.951,248.625z   M174.951,200.634c9.689,0,17.557,7.884,17.557,17.573c0,9.696-7.868,17.581-17.557,17.581c-9.688,0-17.573-7.885-17.573-17.581  C157.378,208.518,165.262,200.634,174.951,200.634z M190.422,258.995h-30.959c-18.952,0-34.378,15.417-34.378,34.361v24.8  c0,3.543,2.883,6.418,6.427,6.418h86.861c3.543,0,6.427-2.875,6.427-6.418v-24.8C224.8,274.412,209.374,258.995,190.422,258.995z   M211.941,311.735h-74.005v-18.379h0.003c0-11.866,9.656-21.522,21.522-21.522h30.959c11.866,0,21.522,9.656,21.522,21.522V311.735z   M390.18,191.34H257.468c-3.543,0-6.426,2.878-6.426,6.418v34.973c0,3.54,2.883,6.418,6.426,6.418H390.18  c3.543,0,6.426-2.875,6.426-6.418v-34.973C396.606,194.216,393.723,191.34,390.18,191.34z M383.751,226.31H263.894v-22.133h119.856  V226.31z M396.606,265.416c0,3.541-2.883,6.418-6.426,6.418H257.468c-3.543,0-6.426-2.878-6.426-6.418  c0-3.54,2.883-6.418,6.426-6.418H390.18C393.723,258.997,396.606,261.873,396.606,265.416z M396.606,298.092  c0,3.541-2.883,6.418-6.426,6.418H257.468c-3.543,0-6.426-2.878-6.426-6.418c0-3.54,2.883-6.418,6.426-6.418H390.18  C393.723,291.674,396.606,294.549,396.606,298.092z"/><text x="0" y="527" fill="#000000" font-size="5px" font-weight="bold" font-family="'Helvetica Neue', Helvetica, Arial-Unicode, Arial, Sans-serif">Created by Runnin Studio</text><text x="0" y="532" fill="#000000" font-size="5px" font-weight="bold" font-family="'Helvetica Neue', Helvetica, Arial-Unicode, Arial, Sans-serif">from the Noun Project</text></svg>